<svg width="275" height="29" viewBox="0 0 275 29" fill="none" xmlns="http://www.w3.org/2000/svg">
<path d="M5.68999 28.14C3.28999 28.14 2.08999 26.94 2.08999 24.54V18.21C2.08999 17.39 1.95999 16.77 1.69999 16.35C1.43999 15.91 1.02999 15.64 0.469989 15.54C0.169989 15.48 0.019989 15.31 0.019989 15.03V13.17C0.019989 12.87 0.169989 12.71 0.469989 12.69C1.02999 12.59 1.43999 12.33 1.69999 11.91C1.95999 11.47 2.08999 10.85 2.08999 10.05V3.86999C2.08999 1.46999 3.28999 0.269989 5.68999 0.269989H7.99999C8.31999 0.269989 8.47999 0.429989 8.47999 0.749989V2.78999C8.47999 3.10999 8.31999 3.26999 7.99999 3.26999H7.21999C6.69999 3.26999 6.28999 3.44999 5.98999 3.80999C5.70999 4.14999 5.56999 4.63999 5.56999 5.27999V10.47C5.56999 11.43 5.43999 12.19 5.17999 12.75C4.91999 13.31 4.50999 13.73 3.94999 14.01C3.80999 14.07 3.80999 14.14 3.94999 14.22C4.50999 14.5 4.91999 14.93 5.17999 15.51C5.43999 16.09 5.56999 16.85 5.56999 17.79V23.1C5.56999 23.76 5.70999 24.26 5.98999 24.6C6.28999 24.94 6.69999 25.11 7.21999 25.11H7.99999C8.31999 25.11 8.47999 25.27 8.47999 25.59V27.66C8.47999 27.98 8.31999 28.14 7.99999 28.14H5.68999Z" fill="#FFFFFF"/>
<path d="M26.9183 18.15C26.9183 17.43 26.6783 17.13 26.0183 17.13H23.0783C22.4183 17.13 22.3583 17.61 22.2683 18.21C22.0283 19.65 20.7383 20.25 19.1183 20.25C17.1383 20.25 15.7883 19.17 15.7883 17.25V11.01C15.7883 9.11999 17.1383 8.00999 19.1183 8.00999C20.7383 8.00999 21.5783 8.45999 22.2083 9.44999C22.4483 9.80999 22.4783 10.38 23.1083 10.38H25.9883C26.6783 10.38 26.9183 10.23 26.9183 9.50999C26.5283 5.69999 22.8383 3.80999 19.1183 3.80999C15.5483 3.80999 11.0783 5.87999 11.0783 10.59V17.67C11.0783 22.38 15.5483 24.45 19.1183 24.45C22.8383 24.45 26.9183 22.02 26.9183 18.15Z" fill="#FFFFFF"/>
<path d="M46.1733 10.59C46.1733 5.84999 41.6733 3.80999 38.1033 3.80999C34.5333 3.80999 30.0933 5.84999 30.0933 10.59V17.67C30.0933 22.41 34.5333 24.45 38.1033 24.45C41.6733 24.45 46.1733 22.41 46.1733 17.67V10.59ZM41.4633 17.25C41.4633 19.17 40.0833 20.28 38.1033 20.28C36.1533 20.28 34.7733 19.17 34.7733 17.25V11.01C34.7733 9.08999 36.1533 7.97999 38.1033 7.97999C40.0833 7.97999 41.4633 9.08999 41.4633 11.01V17.25Z" fill="#FFFFFF"/>
<path d="M57.5893 4.25999H50.8693C50.1793 4.25999 49.9993 4.58999 49.9993 5.12999V23.13C49.9993 23.67 50.1793 24 50.8693 24H57.5893C61.1593 24 65.6593 21.96 65.6593 17.25V11.01C65.6593 6.32999 61.1593 4.25999 57.5893 4.25999ZM60.9493 16.83C60.9493 18.75 59.5693 19.83 57.5893 19.83H54.7093V8.42999H57.5893C59.5693 8.42999 60.9493 9.53999 60.9493 11.43V16.83Z" fill="#FFFFFF"/>
<path d="M79.441 19.8H77.341V5.15999C77.341 5.12999 77.341 5.09999 77.341 5.06999C77.311 4.43999 76.981 4.28999 76.471 4.28999H73.561C73.051 4.28999 72.721 4.43999 72.691 5.06999C72.691 7.31999 71.371 7.58999 70.801 7.58999H70.141C69.451 7.58999 69.271 7.88999 69.271 8.45999V10.89C69.271 11.46 69.451 11.76 70.141 11.76H72.691V19.8H70.141C69.451 19.8 69.271 20.13 69.271 20.67V23.13C69.271 23.67 69.451 24 70.141 24H79.441C80.131 24 80.311 23.67 80.311 23.13V20.67C80.311 20.13 80.131 19.8 79.441 19.8Z" fill="#FFFFFF"/>
<path d="M99.4266 4.25999H96.5466C96.0066 4.25999 95.6766 4.43999 95.6766 5.12999V15.54L89.3166 5.27999C88.9266 4.67999 88.7166 4.25999 87.9666 4.25999H85.1466C84.4566 4.25999 84.2766 4.58999 84.2766 5.12999V23.13C84.2766 23.82 84.6066 24 85.1466 24H88.1166C88.6566 24 88.9866 23.82 88.9866 23.13V12.69L95.3466 22.98C95.7366 23.58 95.9466 24 96.6966 24H99.4266C100.117 24 100.297 23.67 100.297 23.13V5.12999C100.297 4.43999 99.9666 4.25999 99.4266 4.25999Z" fill="#FFFFFF"/>
<path d="M119.396 12.99H112.826C112.136 12.99 111.956 13.32 111.956 13.86V16.2C111.956 16.74 112.136 17.07 112.826 17.07H115.526C115.526 19.38 114.146 20.28 112.196 20.28C110.216 20.28 108.896 19.17 108.896 17.25V11.22C108.896 9.29999 110.216 7.97999 112.196 7.97999C114.206 7.97999 115.286 8.87999 115.616 9.80999C115.766 10.23 115.646 10.83 116.486 10.83H119.396C120.086 10.83 120.266 10.71 120.266 9.98999C120.266 5.96999 115.946 3.80999 112.196 3.80999C108.656 3.80999 104.126 5.81999 104.126 10.56V17.94C104.126 22.65 108.656 24.45 112.196 24.45C115.616 24.45 119.996 22.53 120.266 18.21V13.86C120.266 13.32 120.086 12.99 119.396 12.99Z" fill="#FFFFFF"/>
<path d="M139.855 4.25999H133.135C132.445 4.25999 132.265 4.58999 132.265 5.12999V23.13C132.265 23.67 132.445 24 133.135 24H139.855C143.425 24 147.925 21.96 147.925 17.25V11.01C147.925 6.32999 143.425 4.25999 139.855 4.25999ZM143.215 16.83C143.215 18.75 141.835 19.83 139.855 19.83H136.975V8.42999H139.855C141.835 8.42999 143.215 9.53999 143.215 11.43V16.83Z" fill="#FFFFFF"/>
<path d="M168.757 23.16L162.127 5.18999C161.857 4.55999 161.557 4.25999 160.897 4.25999H158.017C157.357 4.25999 157.027 4.55999 156.787 5.18999L150.127 23.16C149.977 23.52 149.977 24 150.637 24H153.787C154.447 24 154.687 23.82 154.927 23.1L155.767 20.73H163.117L163.957 23.1C164.197 23.82 164.437 24 165.097 24H168.247C168.907 24 168.907 23.52 168.757 23.16ZM157.207 16.53L159.457 9.89999L161.707 16.53H157.207Z" fill="#FFFFFF"/>
<path d="M195.329 4.25999H192.149C191.339 4.25999 191.129 4.49999 190.889 5.21999L186.839 17.64L182.759 5.21999C182.519 4.49999 182.309 4.25999 181.529 4.25999H178.199C177.629 4.25999 177.509 4.73999 177.659 5.12999L184.109 23.1C184.469 23.88 184.679 24 185.339 24H188.219C188.879 24 189.089 23.88 189.449 23.1L195.869 5.12999C196.019 4.73999 195.899 4.25999 195.329 4.25999Z" fill="#FFFFFF"/>
<path d="M208.582 19.8H206.482V5.15999C206.482 5.12999 206.482 5.09999 206.482 5.06999C206.452 4.43999 206.122 4.28999 205.612 4.28999H202.702C202.192 4.28999 201.862 4.43999 201.832 5.06999C201.832 7.31999 200.512 7.58999 199.942 7.58999H199.282C198.592 7.58999 198.412 7.88999 198.412 8.45999V10.89C198.412 11.46 198.592 11.76 199.282 11.76H201.832V19.8H199.282C198.592 19.8 198.412 20.13 198.412 20.67V23.13C198.412 23.67 198.592 24 199.282 24H208.582C209.272 24 209.452 23.67 209.452 23.13V20.67C209.452 20.13 209.272 19.8 208.582 19.8Z" fill="#FFFFFF"/>
<path d="M228.567 4.25999H225.687C225.147 4.25999 224.817 4.43999 224.817 5.12999V15.54L218.457 5.27999C218.067 4.67999 217.857 4.25999 217.107 4.25999H214.287C213.597 4.25999 213.417 4.58999 213.417 5.12999V23.13C213.417 23.82 213.747 24 214.287 24H217.257C217.797 24 218.127 23.82 218.127 23.13V12.69L224.487 22.98C224.877 23.58 225.087 24 225.837 24H228.567C229.257 24 229.437 23.67 229.437 23.13V5.12999C229.437 4.43999 229.107 4.25999 228.567 4.25999Z" fill="#FFFFFF"/>
<path d="M249.076 18.15C249.076 17.43 248.836 17.13 248.176 17.13H245.236C244.576 17.13 244.516 17.61 244.426 18.21C244.186 19.65 242.896 20.25 241.276 20.25C239.296 20.25 237.946 19.17 237.946 17.25V11.01C237.946 9.11999 239.296 8.00999 241.276 8.00999C242.896 8.00999 243.736 8.45999 244.366 9.44999C244.606 9.80999 244.636 10.38 245.266 10.38H248.146C248.836 10.38 249.076 10.23 249.076 9.50999C248.686 5.69999 244.996 3.80999 241.276 3.80999C237.706 3.80999 233.236 5.87999 233.236 10.59V17.67C233.236 22.38 237.706 24.45 241.276 24.45C244.996 24.45 249.076 22.02 249.076 18.15Z" fill="#FFFFFF"/>
<path d="M262.752 19.8H260.652V5.15999C260.652 5.12999 260.652 5.09999 260.652 5.06999C260.622 4.43999 260.292 4.28999 259.782 4.28999H256.872C256.362 4.28999 256.032 4.43999 256.002 5.06999C256.002 7.31999 254.682 7.58999 254.112 7.58999H253.452C252.762 7.58999 252.582 7.88999 252.582 8.45999V10.89C252.582 11.46 252.762 11.76 253.452 11.76H256.002V19.8H253.452C252.762 19.8 252.582 20.13 252.582 20.67V23.13C252.582 23.67 252.762 24 253.452 24H262.752C263.442 24 263.622 23.67 263.622 23.13V20.67C263.622 20.13 263.442 19.8 262.752 19.8Z" fill="#FFFFFF"/>
<path d="M266.867 28.14C266.547 28.14 266.387 27.98 266.387 27.66V25.59C266.387 25.27 266.547 25.11 266.867 25.11H267.647C268.167 25.11 268.567 24.94 268.847 24.6C269.147 24.26 269.297 23.76 269.297 23.1V17.79C269.297 16.85 269.427 16.09 269.687 15.51C269.947 14.93 270.357 14.5 270.917 14.22C271.057 14.14 271.057 14.07 270.917 14.01C270.357 13.73 269.947 13.31 269.687 12.75C269.427 12.19 269.297 11.43 269.297 10.47V5.27999C269.297 4.63999 269.147 4.14999 268.847 3.80999C268.567 3.44999 268.167 3.26999 267.647 3.26999H266.867C266.547 3.26999 266.387 3.10999 266.387 2.78999V0.749989C266.387 0.429989 266.547 0.269989 266.867 0.269989H269.177C271.577 0.269989 272.777 1.46999 272.777 3.86999V10.05C272.777 10.85 272.907 11.47 273.167 11.91C273.427 12.33 273.837 12.59 274.397 12.69C274.697 12.71 274.847 12.87 274.847 13.17V15.03C274.847 15.31 274.697 15.48 274.397 15.54C273.837 15.64 273.427 15.91 273.167 16.35C272.907 16.77 272.777 17.39 272.777 18.21V24.54C272.777 26.94 271.577 28.14 269.177 28.14H266.867Z" fill="#FFFFFF"/>
</svg>
