<svg width="307" height="94" viewBox="0 0 307 94" fill="none" xmlns="http://www.w3.org/2000/svg">
<path d="M8.50815 89.3403C6.9208 87.5611 6.15887 84.5746 6.15887 80.5079V57.696C6.15887 54.773 5.77791 52.549 4.95249 51.0876C4.12707 49.6261 2.85719 48.6729 1.14286 48.3552C0.380933 48.1646 -3.05176e-05 47.7198 -3.05176e-05 47.0208V44.7333C-3.05176e-05 44.0343 0.380933 43.5895 1.14286 43.3989C2.7937 43.0812 4.06358 42.128 4.889 40.6665C5.71442 39.205 6.15887 36.981 6.15887 34.1852V12.0087C6.15887 7.94196 6.9208 4.95545 8.50815 3.11271C10.0955 1.26997 12.5718 0.380365 16.0639 0.380365H21.7149C22.0323 0.380365 22.3498 0.507455 22.6038 0.761626C22.8578 1.0158 22.9847 1.26997 22.9847 1.65122V4.1294C22.9847 4.44711 22.8578 4.76482 22.6038 5.01899C22.3498 5.27317 22.0958 5.40026 21.7149 5.40026H17.6513C15.6195 5.40026 14.1591 6.03568 13.1432 7.30654C12.1908 8.5774 11.6828 10.6108 11.6828 13.4066V34.3758C11.6828 37.4894 11.3019 39.9676 10.4765 41.7468C9.65104 43.526 8.44465 44.8604 6.79381 45.6864C6.47634 45.8135 6.47634 46.0041 6.79381 46.1948C8.44465 47.0844 9.71453 48.4823 10.4765 50.2615C11.3019 52.0407 11.6828 54.5189 11.6828 57.6325V79.3006C11.6828 82.0965 12.1908 84.1298 13.1432 85.4007C14.0956 86.6715 15.6195 87.307 17.6513 87.307H21.7149C22.0323 87.307 22.3498 87.434 22.6038 87.6882C22.8578 87.9424 22.9847 88.1966 22.9847 88.5778V90.9925C22.9847 91.3102 22.8578 91.6279 22.6038 91.8821C22.3498 92.1362 22.0958 92.2633 21.7149 92.2633H16.0639C12.5718 92.0727 10.0955 91.1195 8.50815 89.3403Z" fill="white"/>
<path d="M284.643 92.0736C284.325 92.0736 284.008 91.9465 283.754 91.6923C283.5 91.4382 283.373 91.184 283.373 90.8027V88.3881C283.373 88.0704 283.5 87.7527 283.754 87.4985C284.008 87.2443 284.262 87.1172 284.643 87.1172H288.707C290.738 87.1172 292.199 86.4818 293.215 85.211C294.167 83.9401 294.675 81.9067 294.675 79.1108V57.4427C294.675 54.3291 295.056 51.851 295.881 50.0718C296.707 48.2926 297.913 46.8946 299.564 46.005C299.881 45.8144 299.881 45.6238 299.564 45.4967C297.913 44.6706 296.643 43.3362 295.881 41.557C295.056 39.7778 294.675 37.2997 294.675 34.1861V13.2169C294.675 10.421 294.167 8.38766 293.215 7.11681C292.262 5.84595 290.738 5.21052 288.707 5.21052H284.643C284.325 5.21052 284.008 5.08343 283.754 4.82926C283.5 4.57509 283.373 4.32092 283.373 3.93966V1.4615C283.373 1.14378 283.5 0.826064 283.754 0.571893C284.008 0.317721 284.262 0.190641 284.643 0.190641H290.294C293.786 0.190641 296.262 1.14378 297.85 2.92298C299.437 4.76572 300.199 7.75223 300.199 11.819V33.9954C300.199 36.8549 300.643 39.0153 301.469 40.4768C302.294 42.0018 303.564 42.8914 305.215 43.2091C305.977 43.3998 306.358 43.8446 306.358 44.5435V46.8311C306.358 47.5301 305.977 47.9749 305.215 48.1655C303.501 48.4832 302.231 49.4363 301.405 50.8978C300.58 52.4228 300.199 54.5833 300.199 57.5063V80.5088C300.199 84.5755 299.437 87.562 297.85 89.3412C296.262 91.1204 293.786 92.0736 290.294 92.0736H284.643Z" fill="white"/>
<path d="M47.43 46.5769C39.3663 46.5769 29.2708 41.8747 29.2708 31.2631V15.3138C29.2708 4.70216 39.3663 0 47.43 0C55.8112 0 64.1289 4.25737 65.0178 12.8356C65.0178 14.4878 64.4464 14.8055 62.9225 14.8055H56.4461C55.0493 14.8055 54.9858 13.5346 54.4143 12.7086C53.0175 10.4846 51.1126 9.46788 47.43 9.46788C42.9854 9.46788 39.9377 11.946 39.9377 16.267V30.3735C39.9377 34.6944 42.9854 37.1726 47.43 37.1726C51.1126 37.1726 53.9699 35.8382 54.5413 32.5975C54.7318 31.2631 54.8588 30.1828 56.3826 30.1828H62.986C64.4464 30.1828 65.0178 30.8818 65.0178 32.4704C65.0178 41.1122 55.8112 46.5769 47.43 46.5769Z" fill="white"/>
<path d="M108.448 31.3266C108.448 42.0018 98.2886 46.6404 90.2249 46.6404C82.1612 46.6404 72.1926 42.0654 72.1926 31.3266V15.3774C72.1926 4.70216 82.2247 0.0635319 90.2249 0.0635319C98.2886 0.0635319 108.448 4.63862 108.448 15.3774V31.3266ZM97.8441 16.267C97.8441 11.946 94.7329 9.40434 90.2884 9.40434C85.9073 9.40434 82.7961 11.8825 82.7961 16.267V30.3735C82.7961 34.6944 85.9073 37.2361 90.2884 37.2361C94.7329 37.2361 97.8441 34.7579 97.8441 30.3735V16.267Z" fill="white"/>
<path d="M152.449 16.267V30.3735C152.449 40.9851 142.29 45.6238 134.226 45.6238H119.051C117.464 45.6238 117.083 44.8612 117.083 43.6539V2.98651C117.083 1.77919 117.464 1.01668 119.051 1.01668H134.226C142.29 1.01668 152.449 5.71885 152.449 16.267ZM141.782 17.2201C141.782 12.9627 138.671 10.421 134.226 10.421H127.75V36.1559H134.226C138.671 36.1559 141.782 33.7412 141.782 29.3568V17.2201Z" fill="white"/>
<path d="M185.466 38.0621V43.5904C185.466 44.7977 185.085 45.5602 183.497 45.5602H162.544C160.957 45.5602 160.576 44.7977 160.576 43.5904V38.0621C160.576 36.8548 160.957 36.0923 162.544 36.0923H168.322V17.9191H162.544C160.957 17.9191 160.576 17.2201 160.576 15.9492V10.4846C160.576 9.21371 160.957 8.51473 162.544 8.51473H164.005C165.275 8.51473 168.259 7.87931 168.259 2.85942C168.322 1.46148 169.084 1.08022 170.227 1.08022H176.767C177.91 1.08022 178.672 1.39794 178.735 2.85942C178.735 2.92297 178.735 2.98651 178.735 3.05005V36.0923H183.497C185.021 36.0923 185.466 36.8548 185.466 38.0621Z" fill="white"/>
<path d="M230.483 2.98651V43.6539C230.483 44.8612 230.102 45.6238 228.515 45.6238H222.356C220.641 45.6238 220.197 44.6706 219.308 43.3362L204.958 20.1431V43.6539C204.958 45.2425 204.196 45.6238 202.99 45.6238H196.323C195.117 45.6238 194.355 45.2425 194.355 43.6539V2.98651C194.355 1.77919 194.736 1.01668 196.323 1.01668H202.672C204.387 1.01668 204.831 1.96982 205.72 3.30422L220.07 26.4338V2.92296C220.07 1.33439 220.832 0.953138 222.038 0.953138H228.515C229.784 1.01668 230.483 1.46148 230.483 2.98651Z" fill="white"/>
<path d="M275.563 22.6848V32.4704C274.929 42.1924 265.087 46.5769 257.341 46.5769C249.34 46.5769 239.118 42.5101 239.118 31.8985V15.2503C239.118 4.57508 249.34 -3.8147e-06 257.341 -3.8147e-06C265.785 -3.8147e-06 275.563 4.89279 275.563 13.9159C275.563 15.568 275.183 15.8222 273.595 15.8222H267.055C265.15 15.8222 265.404 14.4878 265.087 13.5346C264.325 11.4377 261.912 9.40434 257.404 9.40434C252.96 9.40434 249.975 12.3909 249.975 16.7118V30.3099C249.975 34.6308 252.96 37.1726 257.404 37.1726C261.785 37.1726 264.896 35.1392 264.896 29.9287H258.801C257.214 29.9287 256.833 29.1662 256.833 27.9588V22.6848C256.833 21.4775 257.214 20.715 258.801 20.715H273.595C275.183 20.715 275.563 21.4775 275.563 22.6848Z" fill="white"/>
<path d="M58.9224 67.8002V79.5556C58.9224 88.3881 50.4777 92.2642 43.7474 92.2642H31.1756C29.9057 92.2642 29.5247 91.6287 29.5247 90.6121V56.7437C29.5247 55.7271 29.8422 55.0916 31.1756 55.0916H43.8109C50.4777 55.0916 58.9224 58.9677 58.9224 67.8002ZM50.0968 68.5627C50.0968 65.0043 47.4935 62.9074 43.8109 62.9074H38.4139V84.3213H43.8109C47.557 84.3213 50.0968 82.288 50.0968 78.666V68.5627Z" fill="white"/>
<path d="M97.0822 92.2006H91.1773C89.9074 92.2006 89.4629 91.8829 89.0185 90.485L87.4311 86.037H73.5895L72.0021 90.485C71.5577 91.8194 71.1132 92.2006 69.8433 92.2006H63.9384C62.6685 92.2006 62.6685 91.311 62.986 90.6121L75.4943 56.8073C75.9388 55.6 76.5737 55.0281 77.7801 55.0281H83.1771C84.4469 55.0281 84.9549 55.6 85.4628 56.8073L97.9076 90.6121C98.3521 91.311 98.3521 92.2006 97.0822 92.2006ZM84.8279 78.1577L80.5738 65.7033L76.3197 78.1577H84.8279Z" fill="white"/>
<path d="M148.957 56.7437L136.893 90.5485C136.194 92.01 135.813 92.2642 134.607 92.2642H129.21C127.94 92.2642 127.559 92.01 126.924 90.5485L114.797 56.7437C114.543 55.9812 114.734 55.0916 115.813 55.0916H122.099C123.559 55.0916 123.94 55.5364 124.385 56.8708L132.067 80.2546L139.687 56.8708C140.131 55.5364 140.512 55.0916 142.036 55.0916H148.004C149.02 55.0916 149.274 55.9812 148.957 56.7437Z" fill="white"/>
<path d="M174.481 85.9734V90.6121C174.481 91.6287 174.164 92.2642 172.83 92.2642H155.37C154.1 92.2642 153.719 91.6287 153.719 90.6121V85.9734C153.719 84.9568 154.036 84.3213 155.37 84.3213H160.132V69.1981H155.37C154.1 69.1981 153.719 68.6263 153.719 67.546V62.9709C153.719 61.8907 154.036 61.3188 155.37 61.3188H156.639C157.719 61.3188 160.195 60.8105 160.195 56.5531C160.259 55.3458 160.894 55.0916 161.846 55.0916H167.306C168.259 55.0916 168.894 55.3458 168.957 56.5531C168.957 56.6166 168.957 56.6802 168.957 56.7437V84.3213H172.894C174.164 84.3213 174.481 84.9568 174.481 85.9734Z" fill="white"/>
<path d="M212.07 56.7437V90.6121C212.07 91.6287 211.752 92.2642 210.419 92.2642H205.276C203.879 92.2642 203.498 91.5017 202.736 90.3579L190.799 70.9773V90.6121C190.799 91.8829 190.164 92.2642 189.148 92.2642H183.561C182.545 92.2642 181.91 91.9465 181.91 90.6121V56.7437C181.91 55.7271 182.227 55.0916 183.561 55.0916H188.831C190.228 55.0916 190.609 55.8541 191.371 56.9979L203.307 76.3149V56.7437C203.307 55.4729 203.942 55.0916 204.958 55.0916H210.355C211.435 55.0916 212.07 55.4729 212.07 56.7437Z" fill="white"/>
<path d="M234.356 93.0902C227.626 93.0902 219.244 89.2141 219.244 80.3181V66.9741C219.244 58.1417 227.626 54.202 234.356 54.202C241.34 54.202 248.261 57.7604 249.023 64.9408C249.023 66.2752 248.579 66.5929 247.245 66.5929H241.848C240.642 66.5929 240.578 65.5126 240.134 64.8137C238.928 62.9709 237.34 62.0813 234.356 62.0813C230.61 62.0813 228.07 64.1782 228.07 67.7366V79.4921C228.07 83.114 230.61 85.1474 234.356 85.1474C237.404 85.1474 239.816 84.0036 240.261 81.3348C240.451 80.191 240.515 79.3014 241.785 79.3014H247.309C248.579 79.3014 249.023 79.8733 249.023 81.2077C248.96 88.5152 241.34 93.0902 234.356 93.0902Z" fill="white"/>
<path d="M276.325 85.9734V90.6121C276.325 91.6287 276.008 92.2642 274.675 92.2642H257.214C255.944 92.2642 255.563 91.6287 255.563 90.6121V85.9734C255.563 84.9568 255.88 84.3213 257.214 84.3213H261.976V69.1981H257.214C255.944 69.1981 255.563 68.6263 255.563 67.546V62.9709C255.563 61.8907 255.88 61.3188 257.214 61.3188H258.484C259.563 61.3188 262.039 60.8105 262.039 56.5531C262.103 55.3458 262.738 55.0916 263.69 55.0916H269.151C270.103 55.0916 270.738 55.3458 270.801 56.5531C270.801 56.6166 270.801 56.6802 270.801 56.7437V84.3213H274.738C276.008 84.3213 276.325 84.9568 276.325 85.9734Z" fill="white"/>
</svg>
