<?xml version="1.0" encoding="utf-8"?>
<svg version="1.2" xmlns="http://www.w3.org/2000/svg" x="0px" y="0px" width="76.036px" height="29px" viewBox="0 0 76.036 29" xml:space="preserve">
<path fill="#FFFFFF" d="M5.69,28.141c-2.4,0-3.6-1.201-3.6-3.601v-6.33c0-0.819-0.13-1.44-0.39-1.86
	c-0.26-0.439-0.67-0.709-1.23-0.81c-0.3-0.06-0.45-0.229-0.45-0.51v-1.86c0-0.3,0.15-0.46,0.45-0.48c0.56-0.1,0.97-0.36,1.23-0.78
	c0.26-0.44,0.39-1.06,0.39-1.86V3.87c0-2.4,1.2-3.6,3.6-3.6H8c0.32,0,0.48,0.16,0.48,0.48v2.04c0,0.32-0.16,0.48-0.48,0.48H7.22
	c-0.52,0-0.93,0.18-1.23,0.54C5.71,4.15,5.57,4.64,5.57,5.28v5.19c0,0.96-0.13,1.72-0.39,2.28c-0.26,0.56-0.67,0.98-1.23,1.26
	c-0.14,0.06-0.14,0.13,0,0.21c0.56,0.28,0.97,0.71,1.23,1.29c0.26,0.58,0.39,1.34,0.39,2.28v5.31c0,0.66,0.14,1.16,0.42,1.5
	c0.3,0.34,0.71,0.51,1.23,0.51H8c0.32,0,0.48,0.16,0.48,0.48v2.07c0,0.32-0.16,0.48-0.48,0.48H5.69z"/>
<path fill="#FFFFFF" d="M26.918,18.15c0-0.721-0.24-1.021-0.9-1.021h-2.94c-0.66,0-0.72,0.479-0.81,1.08
	c-0.24,1.44-1.53,2.04-3.15,2.04c-1.98,0-3.33-1.08-3.33-3v-6.24c0-1.89,1.35-3,3.33-3c1.62,0,2.46,0.45,3.09,1.44
	c0.24,0.36,0.27,0.93,0.9,0.93h2.88c0.69,0,0.93-0.15,0.93-0.87c-0.39-3.81-4.08-5.7-7.8-5.7c-3.57,0-8.04,2.07-8.04,6.78v7.08
	c0,4.71,4.47,6.78,8.04,6.78C22.838,24.45,26.918,22.02,26.918,18.15z"/>
<path fill="#FFFFFF" d="M37.894,4.26h-6.721c-0.69,0-0.87,0.33-0.87,0.87v18c0,0.54,0.18,0.87,0.87,0.87h6.721
	c3.569,0,8.069-2.04,8.069-6.75v-6.24C45.963,6.33,41.463,4.26,37.894,4.26z M41.253,16.83c0,1.92-1.38,3-3.359,3h-2.88V8.43h2.88
	c1.979,0,3.359,1.11,3.359,3V16.83z"/>
<path fill="#FFFFFF" d="M65.296,4.26h-3.181c-0.81,0-1.02,0.24-1.26,0.96l-4.05,12.421L52.726,5.22
	c-0.239-0.72-0.45-0.96-1.229-0.96h-3.33c-0.57,0-0.69,0.48-0.54,0.87l6.45,17.97c0.359,0.78,0.57,0.9,1.229,0.9h2.88
	c0.66,0,0.87-0.12,1.23-0.9l6.42-17.97C65.986,4.74,65.865,4.26,65.296,4.26z"/>
<path fill="#FFFFFF" d="M68.055,28.141c-0.32,0-0.48-0.16-0.48-0.48v-2.07c0-0.32,0.16-0.48,0.48-0.48h0.779
	c0.521,0,0.92-0.17,1.201-0.51c0.299-0.34,0.449-0.84,0.449-1.5v-5.31c0-0.94,0.13-1.7,0.391-2.28c0.26-0.58,0.67-1.01,1.229-1.29
	c0.14-0.08,0.14-0.15,0-0.21c-0.56-0.28-0.97-0.7-1.229-1.26c-0.261-0.56-0.391-1.32-0.391-2.28V5.28c0-0.64-0.15-1.13-0.449-1.47
	c-0.281-0.36-0.681-0.54-1.201-0.54h-0.779c-0.32,0-0.48-0.16-0.48-0.48V0.75c0-0.32,0.16-0.48,0.48-0.48h2.31
	c2.4,0,3.601,1.2,3.601,3.6v6.18c0,0.8,0.13,1.42,0.39,1.86c0.26,0.42,0.67,0.68,1.229,0.78c0.301,0.02,0.451,0.18,0.451,0.48v1.86
	c0,0.28-0.15,0.45-0.451,0.51c-0.56,0.101-0.97,0.37-1.229,0.81c-0.26,0.42-0.39,1.041-0.39,1.86v6.33
	c0,2.399-1.2,3.601-3.601,3.601H68.055z"/>
</svg>
