<svg width="239" height="133" viewBox="0 0 239 133" fill="none" xmlns="http://www.w3.org/2000/svg">
<path d="M99.6211 0.676514H19.6223C19.5318 0.676514 19.4412 0.676514 19.3355 0.676514C17.6752 0.751697 16.3771 2.16515 16.4526 3.81919C16.528 5.47323 17.962 6.76639 19.6223 6.69121H99.6211C101.342 6.69121 102.64 7.98437 102.64 9.69856V123.978C102.64 125.692 101.342 126.985 99.6211 126.985C97.9607 126.955 96.5872 128.293 96.557 129.947C96.5268 131.601 97.8701 132.97 99.5305 133C99.5607 133 99.5909 133 99.6211 133C104.587 133 108.678 128.925 108.678 123.978V9.69856C108.678 4.75147 104.587 0.676514 99.6211 0.676514Z" fill="#F8CF77"/>
<path d="M84.527 17.2171C86.1873 17.2472 87.5609 15.9089 87.5911 14.2549C87.6213 12.6008 86.2779 11.2325 84.6175 11.2024C84.5873 11.2024 84.5571 11.2024 84.527 11.2024H75.4705C75.3799 11.2024 75.2894 11.2024 75.1837 11.2024C73.5234 11.2776 72.2253 12.691 72.3007 14.3451C72.3762 15.9991 73.8101 17.2923 75.4705 17.2171H84.527Z" fill="#1BBD7D"/>
<path d="M95.0929 17.2171C96.7601 17.2171 98.1117 15.8707 98.1117 14.2097C98.1117 12.5488 96.7601 11.2024 95.0929 11.2024C93.4256 11.2024 92.074 12.5488 92.074 14.2097C92.074 15.8707 93.4256 17.2171 95.0929 17.2171Z" fill="#FD665C"/>
<path d="M89.1458 126.985C89.1156 126.985 89.0854 126.985 89.0552 126.985H9.05646C7.33573 126.985 6.03764 125.692 6.03764 123.978V9.69856C6.03764 7.98437 7.33573 6.69121 9.05646 6.69121C10.7168 6.72128 12.0904 5.38301 12.1206 3.72897C12.1508 2.07493 10.8074 0.69155 9.14703 0.676514C9.11684 0.676514 9.08665 0.676514 9.05646 0.676514C4.0905 0.676514 0 4.75147 0 9.69856V123.978C0 128.925 4.0905 133 9.05646 133H89.0552C90.7156 133.03 92.0891 131.692 92.1193 130.038C92.1495 128.384 90.8061 127 89.1458 126.985Z" fill="#F8CF77"/>
<path d="M17.9167 48.4633H61.2217C62.8669 48.4633 64.2103 47.1401 64.2103 45.4861C64.2103 43.832 62.882 42.5088 61.2217 42.5088H17.9167C16.2714 42.5088 14.9281 43.832 14.9281 45.4861C14.9281 47.1401 16.2714 48.4633 17.9167 48.4633Z" fill="#FD665C"/>
<path d="M50.9426 57.6809C50.9426 56.0419 49.6143 54.7036 47.954 54.7036H37.9466C36.3013 54.7036 34.9579 56.0268 34.9579 57.6809C34.9579 59.3349 36.2862 60.6582 37.9466 60.6582H47.954C49.5992 60.6582 50.9426 59.3199 50.9426 57.6809Z" fill="#FD665C"/>
<path d="M17.9167 60.6582H27.9241C29.5693 60.6582 30.9127 59.3349 30.9127 57.6809C30.9127 56.0268 29.5844 54.7036 27.9241 54.7036H17.9167C16.2714 54.7036 14.9281 56.0268 14.9281 57.6809C14.9281 59.3349 16.2714 60.6582 17.9167 60.6582Z" fill="#FD665C"/>
<path d="M54.9878 57.6809C54.9878 59.3199 56.3161 60.6582 57.9764 60.6582H67.9838C69.6291 60.6582 70.9725 59.3349 70.9725 57.6809C70.9725 56.0268 69.6442 54.7036 67.9838 54.7036H57.9613C56.3161 54.7187 54.9878 56.0419 54.9878 57.6809Z" fill="#FD665C"/>
<path d="M35.924 66.9136H25.9166C24.2713 66.9136 22.9279 68.2368 22.9279 69.8909C22.9279 71.5449 24.2562 72.8681 25.9166 72.8681H35.924C37.5692 72.8681 38.9126 71.5449 38.9126 69.8909C38.9126 68.2368 37.5692 66.9136 35.924 66.9136Z" fill="#FD665C"/>
<path d="M89.2363 66.9136H45.9313C44.2861 66.9136 42.9427 68.2368 42.9427 69.8909C42.9427 71.5449 44.271 72.8681 45.9313 72.8681H89.2363C90.8816 72.8681 92.225 71.5449 92.225 69.8909C92.225 68.2368 90.8816 66.9136 89.2363 66.9136Z" fill="#FD665C"/>
<path d="M17.9167 84.7021H27.9241C29.5693 84.7021 30.9127 83.3789 30.9127 81.7248C30.9127 80.0708 29.5844 78.7476 27.9241 78.7476H17.9167C16.2714 78.7476 14.9281 80.0708 14.9281 81.7248C14.9281 83.3789 16.2714 84.7021 17.9167 84.7021Z" fill="#FD665C"/>
<path d="M47.954 78.7625H37.9466C36.3013 78.7625 34.9579 80.0857 34.9579 81.7397C34.9579 83.3938 36.2862 84.717 37.9466 84.717H47.954C49.5992 84.717 50.9426 83.3938 50.9426 81.7397C50.9426 80.0857 49.5992 78.7625 47.954 78.7625Z" fill="#FD665C"/>
<path d="M17.9167 36.2685H27.9241C29.5693 36.2685 30.9127 34.9453 30.9127 33.2912C30.9127 31.6372 29.5844 30.314 27.9241 30.314H17.9167C16.2714 30.314 14.9281 31.6372 14.9281 33.2912C14.9281 34.9453 16.2714 36.2685 17.9167 36.2685Z" fill="#FD665C"/>
<path d="M77.6441 78.7476H59.4406C57.7802 78.7476 56.4369 80.0858 56.4369 81.7399C56.4369 83.3939 57.7802 84.7322 59.4406 84.7322H77.6592C79.3195 84.7322 80.6629 83.3939 80.6629 81.7399C80.6629 80.0858 79.3044 78.7476 77.6441 78.7476Z" fill="#FD665C"/>
<path d="M17.9318 96.6111H36.1504C37.8107 96.6111 39.1541 95.2728 39.1541 93.6188C39.1541 91.9647 37.8107 90.6265 36.1504 90.6265H17.9318C16.2714 90.6265 14.9281 91.9647 14.9281 93.6188C14.9281 95.2728 16.2714 96.6111 17.9318 96.6111Z" fill="#FD665C"/>
<path d="M44.4521 93.6189C44.4521 95.2579 45.7804 96.5962 47.4408 96.5962H57.4482C59.0934 96.5962 60.4368 95.2729 60.4368 93.6189C60.4368 91.9648 59.1085 90.6416 57.4482 90.6416H47.4408C45.7955 90.6416 44.4521 91.9799 44.4521 93.6189Z" fill="#FD665C"/>
<path d="M65.931 93.6188C65.931 95.2728 67.2744 96.6111 68.9348 96.6111H87.1533C88.8137 96.6111 90.1571 95.2728 90.1571 93.6188C90.1571 91.9647 88.8137 90.6265 87.1533 90.6265H68.9348C67.2744 90.6265 65.931 91.9647 65.931 93.6188Z" fill="#FD665C"/>
<path d="M17.4941 108.475H60.799C62.4443 108.475 63.7877 107.152 63.7877 105.498C63.7877 103.844 62.4594 102.521 60.799 102.521H17.4941C15.8488 102.521 14.5054 103.844 14.5054 105.498C14.5054 107.152 15.8488 108.475 17.4941 108.475Z" fill="#FD665C"/>
<path d="M17.4488 120.354H27.4562C29.1014 120.354 30.4448 119.031 30.4448 117.377C30.4448 115.723 29.1165 114.4 27.4562 114.4H17.4488C15.8035 114.4 14.4601 115.723 14.4601 117.377C14.4601 119.031 15.8035 120.354 17.4488 120.354Z" fill="#FD665C"/>
<path d="M214.849 16.5403C216.51 16.5704 217.883 15.2321 217.914 13.5781C217.944 11.9241 216.6 10.5557 214.94 10.5256C214.91 10.5256 214.88 10.5256 214.849 10.5256H205.793C205.702 10.5256 205.612 10.5256 205.506 10.5256C203.846 10.6008 202.548 12.0143 202.623 13.6683C202.699 15.3224 204.118 16.6155 205.778 16.5403H214.849Z" fill="#1BBD7D"/>
<path d="M219.468 126.309C219.438 126.309 219.408 126.309 219.378 126.309H139.379C137.658 126.309 136.36 125.015 136.36 123.301V9.02205C136.36 7.30786 137.658 6.0147 139.379 6.0147C141.039 6.04477 142.413 4.7065 142.443 3.05246C142.473 1.39842 141.13 0.0300735 139.469 0C139.439 0 139.409 0 139.379 0C134.413 0 130.322 4.07496 130.322 9.02205V123.301C130.322 128.248 134.413 132.323 139.379 132.323H219.378C221.038 132.353 222.412 131.015 222.442 129.361C222.472 127.707 221.129 126.339 219.468 126.309Z" fill="#F8CF77"/>
<path d="M229.944 0H149.945C149.854 0 149.764 0 149.658 0C147.998 0.0751837 146.7 1.48864 146.775 3.14268C146.851 4.79672 148.284 6.08988 149.945 6.0147H229.944C231.664 6.0147 232.962 7.30786 232.962 9.02205V123.301C232.962 125.015 231.664 126.309 229.944 126.309C228.283 126.279 226.91 127.617 226.879 129.271C226.849 130.925 228.193 132.293 229.853 132.323C229.883 132.323 229.913 132.323 229.944 132.323C234.91 132.323 239 128.248 239 123.301V9.02205C239 4.07496 234.91 0 229.944 0Z" fill="#F8CF77"/>
<path d="M225.415 16.5403C227.083 16.5403 228.434 15.1939 228.434 13.533C228.434 11.8721 227.083 10.5256 225.415 10.5256C223.748 10.5256 222.396 11.8721 222.396 13.533C222.396 15.1939 223.748 16.5403 225.415 16.5403Z" fill="#FD665C"/>
<path d="M149.522 101.227C149.93 101.919 150.669 102.355 151.484 102.355H170.76H198.623H217.898C218.714 102.355 219.453 101.919 219.861 101.227C220.268 100.521 220.268 99.6635 219.846 98.9718L208.012 78.8226L196.178 58.4779C195.771 57.7862 195.031 57.3501 194.216 57.3501C193.401 57.3501 192.661 57.7862 192.254 58.4779L184.691 71.5899L177.084 58.4779C176.676 57.7862 175.937 57.3501 175.137 57.3501C175.137 57.3501 175.137 57.3501 175.122 57.3501C174.322 57.3501 173.567 57.7711 173.175 58.4628L161.341 78.6271L149.507 98.9718C149.115 99.6785 149.115 100.536 149.522 101.227ZM194.246 64.1166L204.118 81.0931L213.959 97.8591H199.936L187.333 76.116L194.246 64.1166ZM165.28 80.8976L175.152 64.1016L182.624 76.9881C182.714 77.1986 182.82 77.3941 182.971 77.5745L194.714 97.8591H170.775H155.424L165.28 80.8976Z" fill="#FD665C"/>
<path d="M171.499 39.261C171.499 34.1334 167.318 29.9683 162.171 29.9683C157.024 29.9683 152.843 34.1334 152.843 39.261C152.843 44.3885 157.024 48.5537 162.171 48.5537C167.318 48.5537 171.499 44.3735 171.499 39.261ZM157.371 39.261C157.371 36.6295 159.53 34.4793 162.171 34.4793C164.813 34.4793 166.971 36.6295 166.971 39.261C166.971 41.8924 164.813 44.0427 162.171 44.0427C159.53 44.0427 157.371 41.8924 157.371 39.261Z" fill="#FD665C"/>
</svg>
