<svg width="247" height="213" viewBox="0 0 247 213" fill="none" xmlns="http://www.w3.org/2000/svg">
<path d="M36.5413 198.781H142.409C144.325 198.781 145.876 197.231 145.876 195.317C145.876 193.403 144.325 191.854 142.409 191.854H36.5413C34.6253 191.854 33.0742 193.403 33.0742 195.317C33.0742 197.231 34.6253 198.781 36.5413 198.781Z" fill="#1BBD7D"/>
<path d="M37.2408 115.303H141.847C141.862 115.303 141.877 115.303 141.877 115.303C143.793 115.303 145.344 113.754 145.344 111.84C145.344 110.305 144.341 108.999 142.957 108.543L90.92 85.9687C90.038 85.5889 89.0343 85.5889 88.1524 85.9687L35.857 108.665C34.3516 109.318 33.5152 110.944 33.8498 112.554C34.1843 114.149 35.5985 115.303 37.2408 115.303ZM89.5362 92.9264L125.15 108.376H53.9224L89.5362 92.9264Z" fill="#1BBD7D"/>
<path d="M42.1982 123.902V181.782C42.1982 183.696 43.7493 185.245 45.6653 185.245C47.5813 185.245 49.1324 183.696 49.1324 181.782V123.902C49.1324 121.988 47.5813 120.438 45.6653 120.438C43.7645 120.438 42.1982 121.988 42.1982 123.902Z" fill="#1BBD7D"/>
<path d="M59.7313 123.902V181.782C59.7313 183.696 61.2824 185.245 63.1984 185.245C65.1145 185.245 66.6655 183.696 66.6655 181.782V123.902C66.6655 121.988 65.1145 120.438 63.1984 120.438C61.2824 120.438 59.7313 121.988 59.7313 123.902Z" fill="#1BBD7D"/>
<path d="M77.2493 123.902V181.782C77.2493 183.696 78.8003 185.245 80.7164 185.245C82.6324 185.245 84.1835 183.696 84.1835 181.782V123.902C84.1835 121.988 82.6324 120.438 80.7164 120.438C78.8003 120.438 77.2493 121.988 77.2493 123.902Z" fill="#1BBD7D"/>
<path d="M94.7672 123.902V181.782C94.7672 183.696 96.3183 185.245 98.2343 185.245C100.15 185.245 101.701 183.696 101.701 181.782V123.902C101.701 121.988 100.15 120.438 98.2343 120.438C96.3183 120.438 94.7672 121.988 94.7672 123.902Z" fill="#1BBD7D"/>
<path d="M112.285 123.902V181.782C112.285 183.696 113.836 185.245 115.752 185.245C117.668 185.245 119.219 183.696 119.219 181.782V123.902C119.219 121.988 117.668 120.438 115.752 120.438C113.836 120.438 112.285 121.988 112.285 123.902Z" fill="#1BBD7D"/>
<path d="M129.803 123.902V181.782C129.803 183.696 131.354 185.245 133.27 185.245C135.186 185.245 136.737 183.696 136.737 181.782V123.902C136.737 121.988 135.186 120.438 133.27 120.438C131.369 120.438 129.803 121.988 129.803 123.902Z" fill="#1BBD7D"/>
<path d="M243.67 206.285H213.698C212.359 199.966 207.372 194.968 200.711 193.646C200.711 157.05 200.711 89.8425 200.711 56.5579C200.711 55.5553 200.042 54.5679 199.373 53.8994L171.728 13.642V3.32694C171.728 1.33685 170.389 0 168.397 0C166.405 0 165.067 1.33685 165.067 3.32694V13.642L138.76 53.8994C138.091 54.5679 137.422 55.5705 137.422 56.5579C137.422 66.4476 137.422 72.1292 137.422 83.0063C137.422 83.0823 137.391 83.1583 137.391 83.2342V95.0988C137.391 96.9369 138.881 98.4409 140.737 98.4409C142.577 98.4409 144.082 96.9521 144.082 95.0988V83.2342V75.5321H194.036V119.117C194.036 119.117 174.784 119.117 160.566 119.117C158.878 119.192 157.525 120.529 157.403 122.2V125.77V188.906V193.312V197.292C157.646 198.629 158.665 199.677 159.988 199.966C172.336 199.966 184.425 199.966 197.366 199.966C201.365 199.966 205.03 202.624 206.353 206.285H157.388H155.32C154.955 206.164 154.575 206.073 154.164 206.073H3.46709C1.55107 206.073 0 207.622 0 209.536C0 211.45 1.55107 213 3.46709 213H154.194C154.407 213 154.62 212.97 154.818 212.939C187.375 212.939 222.761 212.939 243.67 212.939C245.662 212.939 247 211.602 247 209.612C247 207.622 245.677 206.285 243.67 206.285ZM175.392 193.312H164.063V125.77H175.392V193.312ZM194.051 193.312H182.068V125.77H194.051V193.312ZM168.397 20.6301L190.705 53.231H147.093L168.397 20.6301ZM194.051 68.8783H144.097V59.9001H194.051V68.8783Z" fill="#1BBD7D"/>
<path d="M168.504 105.004C173.689 105.004 177.901 100.796 177.901 95.6154C177.901 90.4351 173.689 86.2271 168.504 86.2271C163.318 86.2271 159.106 90.4351 159.106 95.6154C159.106 100.796 163.318 105.004 168.504 105.004ZM168.504 90.7997C171.165 90.7997 173.339 92.9721 173.339 95.6306C173.339 98.2891 171.165 100.461 168.504 100.461C165.843 100.461 163.668 98.2891 163.668 95.6306C163.668 92.9721 165.843 90.7997 168.504 90.7997Z" fill="#F8CF77"/>
</svg>
