<svg width="288" height="131" viewBox="0 0 288 131" fill="none" xmlns="http://www.w3.org/2000/svg">
<path d="M284.938 108.127H271.727V10.2362C271.727 7.41838 270.577 4.85933 268.722 3.01912C266.868 1.16454 264.309 0.0144043 261.506 0.0144043H118.34C115.522 0.0144043 112.963 1.16454 111.123 3.01912C109.254 4.85933 108.104 7.41838 108.104 10.2362V108.127H94.8931C93.1968 108.127 91.8311 109.493 91.8311 111.189V115.157C91.8311 119.513 93.6137 123.481 96.4744 126.342C99.3351 129.203 103.303 130.986 107.659 130.986H272.158C276.514 130.986 280.482 129.203 283.342 126.342C286.203 123.481 287.986 119.513 287.986 115.157V111.189C288 109.493 286.634 108.127 284.938 108.127ZM114.243 10.2362C114.243 9.11482 114.703 8.09408 115.45 7.34649C116.198 6.59891 117.218 6.13885 118.34 6.13885H261.506C262.627 6.13885 263.648 6.59891 264.395 7.34649C265.143 8.09408 265.603 9.11482 265.603 10.2362V108.127H114.243V10.2362ZM279.015 122.015C277.247 123.769 274.832 124.876 272.158 124.876H107.659C104.999 124.876 102.57 123.783 100.801 122.015C99.0333 120.246 97.9407 117.831 97.9407 115.157V114.251H111.152H268.636H281.847V115.157C281.876 117.831 280.783 120.261 279.015 122.015Z" fill="#4495A7"/>
<path d="M255.885 12.7808H123.946C122.25 12.7808 120.884 14.1465 120.884 15.843V98.4081C120.884 100.104 122.264 101.47 123.946 101.47H255.885C257.581 101.47 258.947 100.104 258.947 98.4081V15.8574C258.947 14.1609 257.581 12.7808 255.885 12.7808ZM252.823 95.3458H127.008V18.9196H252.809V95.3458H252.823Z" fill="#7AA3AB"/>
<path d="M59.5148 0H14.0449C6.2965 0 0 6.25384 0 13.9453V116.738C0 124.43 6.2965 130.684 14.0449 130.684H59.5148C67.2633 130.684 73.5598 124.43 73.5598 116.738V13.9453C73.5598 6.25384 67.2633 0 59.5148 0ZM67.4501 13.9453V116.738C67.4501 121.066 63.885 124.574 59.5005 124.574H14.0449C9.67475 124.574 6.10961 121.066 6.10961 116.738V13.9453C6.10961 9.61798 9.67475 6.11007 14.0449 6.11007H59.5148C63.885 6.11007 67.4501 9.61798 67.4501 13.9453Z" fill="#4495A7"/>
<path d="M28.8949 17.2808H46.8068C48.4888 17.2808 49.8545 15.915 49.8545 14.2329C49.8545 12.5508 48.4888 11.1851 46.8068 11.1851H28.8949C27.2129 11.1851 25.8473 12.5508 25.8473 14.2329C25.8473 15.915 27.2129 17.2808 28.8949 17.2808Z" fill="#7AA3AB"/>
<path d="M36.7727 106.617C33.0494 106.617 30.0162 109.665 30.0162 113.417C30.0162 117.17 33.0494 120.232 36.7727 120.232C40.496 120.232 43.5292 117.184 43.5292 113.417C43.5292 109.679 40.496 106.617 36.7727 106.617Z" fill="#7AA3AB"/>
<path d="M31.1087 87.9131C31.2669 87.7549 31.3387 87.5393 31.3387 87.2661V84.1464C31.3387 83.8732 31.2669 83.6576 31.1087 83.4994C30.9506 83.3413 30.735 83.2694 30.4618 83.2694H28.7511C26.5517 83.2694 25.4591 81.8749 25.4591 79.0858V68.0733C25.4591 66.2618 25.2147 64.8098 24.726 63.7172C24.2372 62.6245 23.4609 61.7907 22.3971 61.2444C22.1959 61.1294 22.1959 61.0144 22.3971 60.885C23.4609 60.3387 24.2372 59.5192 24.726 58.4409C25.2147 57.3627 25.4591 55.925 25.4591 54.1136V43.3886C25.4591 40.6426 26.5517 39.2625 28.7511 39.2625H30.4618C30.735 39.2625 30.9506 39.1906 31.1087 39.0325C31.2669 38.8743 31.3387 38.6587 31.3387 38.3855V35.2083C31.3387 34.9351 31.2669 34.7195 31.1087 34.5613C30.9506 34.4032 30.735 34.3313 30.4618 34.3313H26.451C24.1797 34.3313 22.4978 34.9064 21.4196 36.0421C20.3414 37.1779 19.7952 38.9318 19.7952 41.2896V53.5385C19.7952 56.6439 18.7745 58.3691 16.7332 58.7285C16.1869 58.8435 15.9137 59.1598 15.9137 59.6773V62.567C15.9137 63.0846 16.1869 63.3865 16.7332 63.5159C17.7538 63.7172 18.5157 64.2347 19.0332 65.0829C19.5364 65.9312 19.7952 67.1532 19.7952 68.7634V81.3142C19.7952 83.6719 20.3414 85.4115 21.4196 86.5329C22.4978 87.6543 24.1797 88.215 26.451 88.215H30.4618C30.735 88.1431 30.9506 88.0712 31.1087 87.9131Z" fill="#1BBD7D"/>
<path d="M56.8122 58.6999C54.7709 58.3405 53.7502 56.6153 53.7502 53.5099V41.261C53.7502 38.9033 53.2039 37.1637 52.1258 36.0136C51.0476 34.8778 49.3657 34.3027 47.0943 34.3027H43.0836C42.8104 34.3027 42.5948 34.389 42.4367 34.5328C42.2785 34.6909 42.2066 34.9066 42.2066 35.1797V38.3569C42.2066 38.6301 42.2785 38.8458 42.4367 39.0039C42.5948 39.162 42.8104 39.2339 43.0836 39.2339H44.7942C46.9937 39.2339 48.0863 40.6141 48.0863 43.36V54.085C48.0863 55.8965 48.3306 57.3341 48.8194 58.4124C49.3082 59.4906 50.0845 60.3101 51.1482 60.8564C51.3495 60.9714 51.3495 61.0864 51.1482 61.2158C50.0845 61.7621 49.3082 62.596 48.8194 63.6886C48.3306 64.7812 48.0863 66.2476 48.0863 68.0447V79.0572C48.0863 81.8463 46.9937 83.2408 44.7942 83.2408H43.0836C42.8104 83.2408 42.5948 83.3127 42.4367 83.4709C42.2785 83.629 42.2066 83.8447 42.2066 84.1178V87.2375C42.2066 87.5107 42.2785 87.7263 42.4367 87.8845C42.5948 88.0426 42.8104 88.1145 43.0836 88.1145H47.0943C49.3657 88.1145 51.0476 87.5538 52.1258 86.4324C53.2039 85.3111 53.7502 83.5715 53.7502 81.2137V68.6629C53.7502 67.0527 54.009 65.8307 54.5121 64.9825C55.0153 64.1343 55.7916 63.6167 56.8122 63.4154C57.3585 63.3004 57.6316 62.9841 57.6316 62.4666V59.5769C57.6316 59.1312 57.3585 58.8149 56.8122 58.6999Z" fill="#1BBD7D"/>
<path d="M169.876 59.3757C170.897 59.5769 171.659 60.0945 172.176 60.9427C172.679 61.7909 172.938 63.0129 172.938 64.6231V77.1739C172.938 79.5317 173.484 81.2713 174.562 82.3927C175.641 83.514 177.323 84.0747 179.594 84.0747H183.605C183.878 84.0747 184.093 84.0028 184.252 83.8447C184.41 83.6866 184.482 83.4709 184.482 83.1978V80.078C184.482 79.8049 184.41 79.5892 184.252 79.4311C184.093 79.2729 183.878 79.201 183.605 79.201H181.894C179.695 79.201 178.602 77.8065 178.602 75.0174V64.0049C178.602 62.1935 178.358 60.7414 177.869 59.6488C177.38 58.5562 176.604 57.7223 175.54 57.176C175.339 57.061 175.339 56.946 175.54 56.8166C176.604 56.2703 177.38 55.4508 177.869 54.3726C178.358 53.2943 178.602 51.8567 178.602 50.0452V39.3202C178.602 36.5743 179.695 35.1941 181.894 35.1941H183.605C183.878 35.1941 184.093 35.1222 184.252 34.9641C184.41 34.806 184.482 34.5903 184.482 34.3172V31.1399C184.482 30.8668 184.41 30.6511 184.252 30.493C184.093 30.3348 183.878 30.2629 183.605 30.2629H179.594C177.323 30.2629 175.641 30.838 174.562 31.9738C173.484 33.1095 172.938 34.8635 172.938 37.2212V49.4701C172.938 52.5755 171.917 54.3007 169.876 54.6601C169.33 54.7751 169.057 55.0914 169.057 55.609V58.4987C169.057 58.9444 169.33 59.2606 169.876 59.3757Z" fill="#1BBD7D"/>
<path d="M196.226 84.0602H200.237C202.509 84.0602 204.19 83.4995 205.269 82.3781C206.347 81.2567 206.893 79.5172 206.893 77.1594V64.6086C206.893 62.9984 207.152 61.7764 207.655 60.9282C208.158 60.0799 208.934 59.5624 209.955 59.3611C210.501 59.2461 210.774 58.9298 210.774 58.4122V55.5225C210.774 55.0194 210.501 54.7031 209.955 54.5737C207.914 54.2143 206.893 52.4891 206.893 49.3837V37.1348C206.893 34.777 206.347 33.0375 205.269 31.8873C204.19 30.7516 202.509 30.1765 200.237 30.1765H196.226C195.953 30.1765 195.738 30.2484 195.58 30.4065C195.421 30.5647 195.35 30.7803 195.35 31.0535V34.2307C195.35 34.5039 195.421 34.7195 195.58 34.8777C195.738 35.0358 195.953 35.1077 196.226 35.1077H197.937C200.137 35.1077 201.229 36.4879 201.229 39.2338V49.9588C201.229 51.7702 201.474 53.2079 201.962 54.2861C202.451 55.3644 203.227 56.1839 204.291 56.7302C204.492 56.8452 204.492 56.9602 204.291 57.0896C203.227 57.6359 202.451 58.4698 201.962 59.5624C201.474 60.655 201.229 62.1214 201.229 63.9185V74.931C201.229 77.7201 200.122 79.1146 197.937 79.1146H196.226C195.953 79.1146 195.738 79.1865 195.58 79.3446C195.421 79.5028 195.35 79.7184 195.35 79.9916V83.1113C195.35 83.3845 195.421 83.6001 195.58 83.7583C195.738 83.9739 195.953 84.0602 196.226 84.0602Z" fill="#1BBD7D"/>
</svg>
