<?xml version="1.0" standalone="no"?>
<!DOCTYPE svg PUBLIC "-//W3C//DTD SVG 20010904//EN"
 "http://www.w3.org/TR/2001/REC-SVG-20010904/DTD/svg10.dtd">
<svg version="1.0" xmlns="http://www.w3.org/2000/svg"
 width="700.000000pt" height="700.000000pt" viewBox="0 0 700.000000 700.000000"
 preserveAspectRatio="xMidYMid meet">
<metadata>
Created by potrace 1.11, written by Peter Selinger 2001-2013
</metadata>
<g transform="translate(0.000000,700.000000) scale(0.100000,-0.100000)"
fill="#000000" stroke="none">
<path d="M1517 5804 c-1 -1 -40 -4 -87 -7 -138 -10 -244 -54 -323 -134 -50
-50 -97 -135 -117 -213 -7 -25 -15 -54 -18 -65 -2 -11 -6 -294 -8 -630 -2
-612 -5 -706 -25 -780 -11 -41 -49 -119 -71 -145 -28 -34 -86 -69 -140 -85
-92 -26 -99 -41 -97 -209 0 -77 6 -150 12 -163 7 -16 26 -28 59 -38 159 -47
237 -153 253 -346 4 -41 8 -353 10 -694 2 -541 5 -628 19 -685 49 -189 156
-297 346 -347 53 -14 112 -17 318 -17 l254 -1 19 24 c17 21 19 40 19 181 0
207 4 202 -146 205 -61 2 -126 6 -145 10 -88 19 -142 69 -182 167 -21 52 -21
67 -23 588 -3 625 -9 749 -43 835 -49 123 -96 186 -177 240 -62 41 -62 43 13
94 115 79 183 223 199 420 3 36 6 299 6 585 1 362 5 534 13 570 27 115 88 185
179 207 28 7 100 13 160 14 150 3 146 -3 146 211 0 151 -2 166 -20 184 -11 11
-23 20 -27 21 -12 2 -374 4 -376 3z"/>
<path d="M5057 5797 c-15 -5 -30 -20 -36 -39 -14 -40 -14 -286 0 -326 14 -40
31 -45 154 -47 150 -3 199 -18 256 -80 31 -34 66 -120 74 -180 2 -22 5 -283 6
-580 1 -472 4 -551 19 -630 32 -161 104 -280 205 -339 25 -15 45 -31 45 -36 0
-5 -19 -21 -41 -36 -99 -62 -161 -155 -201 -299 -20 -76 -21 -104 -25 -550 -4
-563 -8 -750 -17 -790 -13 -54 -39 -100 -80 -138 -60 -59 -89 -66 -263 -70
-143 -3 -137 4 -140 -202 -3 -230 -29 -210 284 -209 194 1 263 5 318 18 155
37 259 116 315 240 55 122 59 164 60 821 1 330 3 627 6 660 12 179 101 309
233 344 86 23 86 21 89 200 l3 159 -27 25 c-15 14 -43 28 -63 32 -94 17 -174
96 -209 205 -28 86 -29 115 -35 990 -4 482 -6 500 -63 613 -70 141 -196 222
-374 243 -92 10 -463 11 -493 1z"/>
<path d="M3350 5337 c-3 -3 -37 -8 -76 -11 -39 -4 -86 -11 -103 -16 -17 -5
-32 -8 -34 -8 -6 3 -122 -27 -192 -49 -348 -111 -638 -349 -772 -633 -31 -65
-71 -183 -78 -230 -2 -14 -7 -47 -12 -75 -9 -58 -11 -1536 -2 -1580 4 -16 10
-48 14 -70 4 -22 20 -81 36 -131 97 -299 341 -544 690 -693 80 -34 235 -82
313 -97 12 -2 32 -6 46 -9 14 -3 50 -8 80 -11 30 -3 61 -7 69 -10 16 -5 273
-5 311 0 14 2 48 7 75 10 28 3 97 18 154 32 463 115 822 407 940 764 33 103
50 208 47 300 -3 95 -12 118 -58 152 -32 22 -35 23 -344 23 -249 0 -316 -3
-337 -14 -32 -17 -64 -80 -71 -141 -15 -117 -67 -211 -161 -288 -67 -56 -242
-102 -383 -102 -294 -1 -482 107 -570 326 l-27 69 -3 635 c-2 418 1 656 8 696
36 211 178 355 398 404 94 21 268 23 371 5 166 -30 304 -135 376 -286 14 -31
40 -69 56 -85 l30 -29 319 0 c306 1 321 2 347 21 57 42 63 130 22 289 -95 358
-389 638 -804 765 -87 27 -173 47 -230 55 -27 4 -61 9 -75 12 -36 6 -365 15
-370 10z"/>
</g>
</svg>
